

<svg width="400" height="254.99999999999997" xmlns="http://www.w3.org/2000/svg">

 <g>
  <title>background</title>
  <rect fill="none" id="canvas_background" height="257" width="402" y="-1" x="-1"/>
 </g>
 <g>
  <title>Layer 1</title>
  <g id="svg_1">
   <ellipse id="svg_2" ry="122.8" rx="194.8" cy="126.900864" cx="200" stroke-miterlimit="10" stroke-width="4" stroke="#009245" fill="none"/>
   <g id="svg_3">
    <path id="svg_4" d="m71,180.700867c2.099998,1.800003 4.900002,1.600006 6.800003,-0.5c4.199997,-4.899994 -6.100006,-5.5 -1.400002,-10.899994c3.699997,-4.300003 12.900002,3.099991 15.900002,5.699997c11.099998,9.600006 9,13.300003 7.5,15c-1.300003,1.5 -3.5,1.5 -5.200005,0.5c-1.699997,-1.100006 -2.099998,-1 -3.799995,0.199997c-9.700005,6.600006 -21.600006,3.5 -30.000004,-3.699997c-12.399998,-10.899994 -15.799999,-28.899994 -4.599998,-42c10.799999,-12.399994 28.999996,-12.100006 41.600002,-1.199997c5.199997,4.5 6.599998,8.5 8.199997,9.899994c1.099998,0.900009 3.400002,1.400009 4.400002,2.300003c3.699997,3.199997 0.599998,11.100006 -2,14.100006c-2.5,2.899994 -6.5,4.599991 -9.700005,1.799988c-5.799995,-5 1.300003,-13.199997 -6.799995,-20.199997c-5.099998,-4.399994 -12.099998,-3.099991 -17.5,3.199997c-10.400002,12.100006 -7.099998,22.5 -3.400002,25.800003z" fill="#009245"/>
    <path id="svg_5" d="m127.599998,202.900864c-0.900002,3 -2.099998,7.699997 2.000008,8.899994c5.399994,1.600006 6.699997,-5.599991 7.799988,-9.199997c0.700012,-2.5 1.800003,-5.699997 2.100006,-8.199997c0.5,-3.900009 -3.5,-3.699997 -2.600006,-6.900009c1.300003,-4.399994 16.5,-0.699997 19.400009,0.200012c2.699997,0.799988 3.300003,2.699997 2.599991,5.299988c-0.699997,2.400009 -1.599991,4.700012 -2.299988,7l-4.5,15c-1.300003,4.5 3.399994,3.600006 2.299988,7.200012c-1.5,5.099991 -15.199997,2.5 -19.299988,1.299988c-5.700012,-1.699997 -0.600006,-5.099991 -3.600006,-6c-0.800003,-0.199997 -2.399994,0.5 -4.5,1.100006c-2.099998,0.600006 -4.900002,1 -8.099998,0c-14.200005,-4.199997 -9.599998,-15.100006 -6.300003,-26.300003c3.400002,-11.399994 -3.199997,-8 -1.799995,-12.899994c1.399994,-4.800003 20.300003,0.599991 20.899994,0.800003c2.100006,0.599991 2,1.699997 1.5,3.5l-5.599998,19.199997z" fill="#009245"/>
    <path id="svg_6" d="m185.199997,216.00087c-0.899994,9.199997 4,6.300003 3.600006,10.399994c-0.5,5.300018 -10.400009,4.300018 -13.800003,4c-13.300003,-1.299988 -13.600006,-4.299988 -13.399994,-6.199997c0.299988,-2.800003 3.5,-2.599991 4.599991,-5c1.300003,-2.599991 2.5,-13.800003 1.900009,-16.800003c-0.400009,-2.799988 -4.5,-2.299988 -4.100006,-5.799988c0.5,-5.5 20.399994,-6 21.199997,-5.900009c2.300003,0.199997 2.199997,2 2.100006,3.600006l-2.100006,21.699997zm-12.699997,-29c-3.300003,-0.300003 -6.600006,-2.100006 -6.199997,-5.899994c0.5,-5.100006 10.899994,-6.200012 14.899994,-5.900009c3.100006,0.300003 7.400009,1.699997 7.100006,5.600006c-0.699997,6 -11.400009,6.599991 -15.800003,6.199997z" fill="#009245"/>
    <path id="svg_7" d="m218.300003,213.300873c0.199997,5.199997 2.5,6.399994 4.599991,6.300003c2.400009,-0.100006 3.700012,-2 5.100006,-2c1.600006,-0.100006 2.699997,2.099991 2.800003,3.5c0.199997,5.099991 -8.400009,10 -16.300003,10.399994c-4,0.200012 -14,-1.100006 -14.600006,-13.5l-0.699997,-16c-0.099991,-1.399994 -0.099991,-1.899994 -0.5,-2.199997c-0.399994,-0.199997 -1.199997,0 -3,0.099991c-2,0.100006 -3,0.200012 -3.399994,-0.199997c-0.600006,-0.5 -0.400009,-1.300003 -0.5,-3.099991c0,-1.100006 -0.300003,-1.900009 0.599991,-2.600006l17.300003,-12.100006c1.699997,-1.199997 1.699997,-0.899994 4,-1c3.100006,-0.099991 3.300003,-0.5 3.400009,3.100006c0.099991,2.399994 0.099991,4.800003 0.5,5.800003c0.299988,0.599991 0.799988,0.599991 2.799988,0.5l5.400009,-0.199997c3.300003,-0.100006 3.399994,0.099991 3.5,3.599991c0.199997,4.400009 -0.300003,4.800003 -3.400009,4.900009l-5.399994,0.199997c-2.699997,0.099991 -2.899994,0.199997 -2.800003,3l0.600006,11.5z" fill="#009245"/>
    <path id="svg_8" d="m273.299988,201.800873c3.100006,13.399994 6,5 6.899994,9.099991c1,4.300003 -3.799988,10.400009 -9.299988,11.700012c-6,1.399994 -7.100006,-2.400009 -8.899994,-2c-0.900024,0.199997 -1.700012,1.399994 -3.100006,2.699997c-1.399994,1.399994 -3.5,2.899994 -7,3.699997c-6.300003,1.5 -13.400009,-0.399994 -15.100006,-7.899994c-1.300003,-5.400009 2.300003,-13.300003 15.699997,-16.400009c2.400009,-0.599991 3.400009,-0.599991 2.800003,-3.399994c-0.599991,-2.5 -1.899994,-7.699997 -5.399994,-6.900009c-4.600006,1.100006 -3.100006,9.400009 -9.800003,10.900009c-2.399994,0.599991 -4.699997,-0.800003 -5.199997,-3.199997c-1.5,-6.400009 10.300003,-13.600006 17.5,-15.300003c4.299988,-1 16.600006,-2.100006 19.199982,9.300003l1.700012,7.699997zm-21.099991,12c0.5,2 2,3.800003 4.199997,3.300003c2.899994,-0.700012 2.399994,-3.800003 1.800018,-6.100006c-0.400024,-1.699997 -0.800018,-3.600006 -2.900009,-3.100006c-2.5,0.600006 -3.699997,3.5 -3.100006,5.900009z" fill="#009245"/>
    <path id="svg_9" d="m285.799988,192.00087c-3.5,-6.800003 -5.799988,-0.699997 -8,-4.899994c-2.899994,-5.5 12.5,-15.400009 13.100006,-15.800003c2.600006,-1.400009 3.100006,-0.699997 4.600006,1.5c0.5,0.800003 1.299988,2.399994 2.399994,1.800003c1.699982,-0.900009 -0.200012,-6.900009 5.799988,-10c4.600006,-2.400009 9.5,-0.600006 11.899994,4c2.400024,4.599991 0.400024,10.299988 -4.099976,12.699997c-4.5,2.399994 -7.800018,-0.900009 -9.600006,0c-1.899994,1 0.799988,5.5 1.5,6.699997c1.100006,2.100006 2.799988,4.899994 4.5,7.300003c2,2.800003 6.299988,-1.800003 8.399994,2.300003c2.299988,4.299988 -3.600006,7.899994 -11.200012,11.899994c-3.199982,1.699997 -12.5,6.699997 -15,2c-1.5,-2.899994 1.700012,-4.600006 1.100006,-7.399994c-0.399994,-2 -2.199982,-6.100006 -3.199982,-8l-2.200012,-4.100006z" fill="#009245"/>
    <path id="svg_10" d="m325.200012,144.600876c1.100006,-0.899994 2.100006,-1.699997 2.399994,-2.099991c0.5,-0.600006 0.700012,-1.200012 0.899994,-2c0.300018,-0.700012 0.5,-1.400009 1,-1.900009c2.300018,-2.800003 10.100006,-1 12.600006,1c1.600006,1.300003 1.700012,3.699997 0.399994,5.300003c-2.799988,3.399994 -9.199982,1.5 -11.299988,4.100006c-0.899994,1.099991 -0.899994,2.899994 0.299988,3.799988c3.900024,3.200012 15.400024,-9.5 24.800018,-1.899994c5.699982,4.600006 5.100006,13.300003 0,19.600006c-1,1.199997 -2.600006,2.799988 -4.100006,4.099991c-1.399994,1.400009 -2.700012,2.5 -3,2.900009c-0.299988,0.399994 -0.600006,0.799988 -0.899994,1.299988c-0.200012,0.400009 -0.5,0.800003 -0.800018,1.200012c-1,1.199997 -1.699982,1.699997 -3.299988,1.699997c-2.899994,0.099991 -7.600006,-1.199997 -9.899994,-3.100006c-1.600006,-1.300003 -2.399994,-2.899994 -1,-4.599991c2.199982,-2.700012 10.100006,-0.200012 12.899994,-3.600006c1,-1.199997 1.299988,-2.800003 0,-3.899994c-3.600006,-2.900009 -13.700012,8.599991 -23.600006,0.399994c-6,-4.899994 -5.799988,-13 -0.699982,-19.199997c0.999969,-1.000015 2.199982,-2.200012 3.299988,-3.100006z" fill="#009245"/>
   </g>
   <g id="svg_11">
    <path id="svg_12" d="m92.599998,101.800865c0.599998,3.5 1.5,7.300003 -1.900002,9.899994c-3.599998,2.699997 -6.099998,1.300003 -9.699997,-0.599991l-32.900002,-18.200005c-4.899998,-2.700005 -6,-3 -8.699997,-1.599998c-1.400002,0.699997 -2.700001,0.299995 -3.700001,-1c-3.600002,-4.800003 6.200001,-12.5 9.299999,-14.800003c13.099998,-9.800003 14.900002,-6.300003 15.599998,-5.300003c1.800003,2.400002 -1.099998,4.700005 0.100002,6.400002c1,1.300003 6.999996,4.400002 10.999996,6.5c1.400002,0.599998 3.900002,2.599998 5.300003,1.599998c2.199997,-1.399994 0.599998,-5.699997 0.400002,-7.599998c-0.400002,-2.099998 -1.700005,-9.799995 -2.800003,-11.299995c-1.699997,-2.200005 -4.400002,0.799995 -6.299995,-1.700005c-2.900002,-3.900002 5,-9.699997 7.5,-11.5c7.899994,-5.900002 10.299995,-5.400002 11.899994,-3.199997c1.300003,1.699997 0.600006,3.400002 -0.699997,4.699997c-2.5,2.300003 -2.800003,2.300003 -1.599998,8.900002l7.199997,38.800003z" fill="#009245"/>
    <path id="svg_13" d="m104.300003,54.200859c-3.800003,1.5 -8.5,1.800003 -9.900002,-1.699997c-1.900002,-4.800003 9.299995,-11.599998 14,-13.400002c3.599998,-1.5 9.199997,-2.599998 10.699997,1c2.200005,5.599998 -9.699997,12 -14.799995,14.099998zm28.300003,18.400002c3.400009,8.5 7.600006,3.300003 9.100006,7.099998c2,4.900002 -9.600006,9.600006 -13.699997,11.200005c-15.700005,6.299995 -17.400002,3.699997 -18.100006,2c-1,-2.599998 2.599998,-4.200005 2.800003,-6.900002c0.199997,-3 -3.900002,-13.599998 -5.900002,-15.800003c-1.800003,-2.199997 -6.199997,0.5 -7.5,-2.799995c-2.099998,-5.099998 20.199997,-16.599998 21.099998,-17c2.700005,-1.099998 3.5,0.5 4.099998,2l8.099998,20.199997z" fill="#009245"/>
    <path id="svg_14" d="m167,64.500862c0.300003,1.400002 0.800003,3.900002 1.399994,5c1.400009,2.599998 4.600006,0.5 5.300003,3.699997c1.100006,5.100006 -8.300003,6.700005 -11.5,7.400002c-3.399994,0.700005 -14,3.400002 -15.199997,-2c-0.600006,-2.699997 2.899994,-2.400002 3.199997,-5.400002c0.300003,-3.299995 -1.699997,-12.899994 -2.599991,-16.599998c-0.600006,-3 -1.700012,-8.699997 -3.200012,-12c-2.399994,-5.400002 -6.399994,-2.400002 -7.399994,-6.799999c-1.399994,-6.599997 18,-12.499998 19.100006,-12.699999c2.599991,-0.599998 3.599991,1 4.099991,3.300003c0.400009,1.799999 1.199997,10.299994 3.600006,21.199995l3.199997,14.900002z" fill="#009245"/>
    <path id="svg_15" d="m204.199997,60.700859c0.100006,1.400002 0.199997,4 0.699997,5.200005c1,2.699997 4.5,1.199997 4.700012,4.5c0.299988,5.199997 -9.200012,5.400002 -12.5,5.699997c-3.5,0.200005 -14.400009,1.300003 -14.700012,-4.199997c-0.199997,-2.700005 3.200012,-1.900002 4,-4.900002c0.800003,-3.300003 0.200012,-13 -0.099991,-16.800003c-0.199997,-3 -0.400009,-8.899994 -1.400009,-12.299995c-1.5,-5.700001 -6,-3.400002 -6.299988,-7.800001c-0.400009,-6.799999 19.699997,-9.699997 20.799988,-9.799999c2.600006,-0.200001 3.400009,1.5 3.5,3.799999c0.100006,1.800003 -0.299988,10.4 0.400009,21.499998l0.899994,15.099998z" fill="#009245"/>
    <path id="svg_16" d="m258.700012,59.600861c-1.5,13.599998 4,6.700005 3.5,10.900002c-0.5,4.400002 -7,8.599998 -12.699997,7.900002c-6.100006,-0.700005 -5.800003,-4.599998 -7.800003,-4.800003c-0.900009,-0.099998 -2,0.800003 -3.900009,1.5c-1.799988,0.800003 -4.199997,1.599998 -7.799988,1.200005c-6.400009,-0.700005 -12.5,-4.800003 -11.600006,-12.5c0.600006,-5.5 6.600006,-11.700005 20.199997,-10.200005c2.400009,0.300003 3.5,0.5 3.800003,-2.299995c0.300003,-2.600006 0.800003,-7.900002 -2.800003,-8.300003c-4.599991,-0.5 -6,7.800003 -12.899994,7.099998c-2.5,-0.299995 -4.100006,-2.299995 -3.900009,-4.699997c0.700012,-6.599998 14.300003,-9.400002 21.600006,-8.600002c4.399994,0.5 16.300003,3.500004 15.000015,15.100002l-0.700012,7.699997zm-24.000015,4.200005c-0.199997,2 0.600006,4.299995 2.900009,4.5c2.899994,0.299995 3.5,-2.800003 3.799988,-5.200005c0.200012,-1.699997 0.5,-3.599998 -1.699997,-3.900002c-2.699997,-0.099998 -4.699997,2.200005 -5,4.600006z" fill="#009245"/>
    <path id="svg_17" d="m280.399994,101.000862c-13.600006,-4.699997 -17,-11.699997 -15.399994,-16.400002c1.5,-4.299995 5.599976,-2.900002 5.899994,-4c0.299988,-1 -2.899994,-4.400002 -1.800018,-7.599998c1.800018,-5.199997 8.300018,-4.699997 8.700012,-5.699997c0.299988,-0.900002 -3.5,-6 -1.600006,-11.5c3.100006,-8.900002 15.600006,-9.200005 23.100006,-6.600006c3.799988,1.300003 8.399994,4.5 10.899994,5.400002c5.600006,1.900002 9.700012,-1 10.800018,-0.599998c1.699982,0.599998 1.699982,3 1.199982,4.400002c-1.399994,4.099998 -6.600006,5.599998 -6.899994,6.5c-0.299988,0.699997 -0.299988,1.599998 -0.600006,2.400002c-3.399994,9.899994 -16.199982,9.299995 -24.299988,6.5c-1.299988,-0.400002 -2.399994,-1.100006 -3.799988,-1.5c-1.300018,-0.400002 -2.300018,0.099998 -2.700012,1.299995c-0.799988,2.300003 2.300018,3.800003 4,4.400002c2.300018,0.800003 11.300018,2.5 14.199982,3.5c7.700012,2.699997 9.400024,8.099998 7.900024,12.5c-2.200012,6.599998 -11.600006,13.300003 -29.600006,7zm2.899994,-6c2.399994,0.800003 8.100006,2.400002 9.299988,-1c0.5,-1.5 -0.699982,-2.699997 -2.099976,-3.199997c-1.100006,-0.400002 -4.100006,-0.900002 -6.5,-1.800003c-1.700012,-0.599998 -5.5,-2.599998 -6.300018,-2.800003c-0.699982,-0.199997 -1.100006,0.400002 -1.299988,0.900002c-1.299988,3.800003 4,6.900002 6.899994,7.900002zm14.400024,-40.300003c-2.899994,-1 -5.100006,1.300003 -6,3.900002c-1,2.800003 -2.299988,9.200005 1.399994,10.5c3.300018,1.099998 5.399994,-1.299995 6.399994,-4.199997c1.100006,-3.099998 2.399994,-8.800003 -1.799988,-10.200005z" fill="#009245"/>
    <path id="svg_18" d="m337.899994,91.700859c-0.700012,-0.5 -1.600006,-1.399994 -2.399994,-0.299995c-2.200012,3.199997 0.099976,8.799995 3.099976,10.900002c4.800018,3.300003 9.200012,2.099991 10.5,3s1.100006,3.699997 0.300018,4.899994c-3.399994,4.900009 -14.899994,2.300003 -20.700012,-1.699997c-11.600006,-8 -11.799988,-20.400002 -6.100006,-28.699997c6.800018,-9.900002 20.200012,-11.300003 29.800018,-4.700005c10.899994,7.5 9.899994,19.200005 6.600006,24c-2.900024,4.200005 -5.200012,3.500008 -7.300018,2.099998l-13.799988,-9.5zm11.200012,-4.299995c1.600006,-2.300003 1.399994,-5.099998 -1,-6.700005c-2.100006,-1.5 -5.399994,-0.5 -6.799988,1.600006c-1.600006,2.299995 0.899994,3.299995 2.600006,4.399994c1.799988,1.200005 3.599976,3 5.199982,0.700005z" fill="#009245"/>
   </g>
  </g>
 </g>
</svg>