<svg xmlns="http://www.w3.org/2000/svg" viewBox="0 0 400 300"><path d="M.7 0h400v300H.7z"/><ellipse fill="none" stroke="#FFF" stroke-width="4" stroke-miterlimit="10" cx="200.1" cy="148.9" rx="196.4" ry="123.8"/><path d="M70.1 203.3c2.1 1.8 5 1.6 6.8-.6 4.3-4.9-6.1-5.5-1.4-11 3.7-4.3 13 3.1 16 5.7 11.2 9.7 9.1 13.4 7.6 15.1-1.3 1.5-3.6 1.5-5.2.5-1.7-1.2-2.1-1-3.8.2-9.8 6.7-21.8 3.6-30.2-3.7-12.6-10.9-16.1-29.1-4.7-42.3C66 154.8 84.4 155 97.1 166c5.2 4.5 6.7 8.6 8.2 9.9 1.1.9 3.4 1.4 4.5 2.3 3.7 3.2.6 11.2-2 14.2-2.5 2.9-6.6 4.6-9.8 1.8-5.9-5.1 1.3-13.4-6.8-20.3-5.2-4.5-12.2-3.1-17.6 3.2-10.6 12.3-7.3 22.9-3.5 26.2zm57.2 22.3c-.9 3-2.1 7.7 2 9 5.4 1.6 6.8-5.7 7.9-9.3.7-2.5 1.8-5.7 2.1-8.2.5-3.9-3.6-3.8-2.6-6.9 1.3-4.4 16.7-.7 19.5.2 2.7.8 3.4 2.7 2.6 5.4-.7 2.4-1.6 4.7-2.3 7.1L152 238c-1.3 4.5 3.4 3.6 2.3 7.3-1.5 5.1-15.3 2.6-19.4 1.3-5.8-1.7-.6-5.1-3.6-6-.8-.2-2.4.5-4.5 1.1-2.1.6-4.9 1-8.2 0-14.3-4.3-9.7-15.2-6.4-26.5 3.4-11.5-3.3-8-1.8-13 1.4-4.8 20.5.6 21.1.8 2.1.6 2 1.7 1.5 3.6l-5.7 19zm58.1 13.1c-.9 9.2 4.1 6.3 3.7 10.4-.5 5.3-10.4 4.4-14 4.1-13.5-1.3-13.7-4.4-13.5-6.2.3-2.8 3.5-2.7 4.7-5 1.3-2.6 2.5-14 1.9-16.9-.4-2.8-4.5-2.3-4.2-5.8.5-5.6 20.6-6 21.4-6 2.3.2 2.3 2 2.1 3.7l-2.1 21.7zm-12.8-29.2c-3.3-.3-6.7-2.1-6.3-6 .5-5.2 11-6.3 15-5.9 3.1.3 7.5 1.7 7.1 5.6-.6 6.2-11.4 6.7-15.8 6.3zm46.3 26.5c.2 5.3 2.5 6.4 4.6 6.3 2.4-.1 3.8-2 5.2-2 1.6-.1 2.8 2.1 2.8 3.5.2 5.2-8.5 10.1-16.4 10.5-4 .2-14.1-1.1-14.7-13.6l-.7-16.2c-.1-1.4-.1-2-.5-2.2-.4-.2-1.3 0-3.1.1-2 .1-3.1.2-3.5-.2-.6-.5-.5-1.3-.5-3.1 0-1.1-.3-2 .6-2.6l17.4-12.2c1.8-1.2 1.7-.9 4-1 3.1-.1 3.3-.5 3.4 3.1.1 2.4.1 4.9.5 5.8.3.6.8.6 2.9.5l5.5-.2c3.4-.2 3.4.1 3.5 3.6.2 4.5-.3 4.8-3.4 5l-5.4.2c-2.7.1-2.9.2-2.8 3l.6 11.7zm55.5-11.7c3.2 13.5 6 5 7 9.2 1 4.4-3.8 10.5-9.4 11.8-6 1.4-7.1-2.4-9-2-.9.2-1.7 1.4-3.1 2.8-1.4 1.4-3.5 2.9-7 3.8-6.3 1.5-13.5-.4-15.3-7.9-1.3-5.4 2.3-13.4 15.8-16.6 2.4-.6 3.5-.7 2.8-3.4-.6-2.5-1.9-7.8-5.4-7-4.6 1.1-3.1 9.4-9.9 11.1-2.4.6-4.7-.7-5.3-3.2-1.5-6.5 10.4-13.8 17.7-15.5 4.4-1 16.7-2.2 19.4 9.3l1.7 7.6zM253 236.5c.5 2 2 3.9 4.3 3.4 2.9-.7 2.4-3.9 1.9-6.2-.4-1.7-.8-3.6-2.9-3.1-2.7.5-3.8 3.4-3.3 5.9zm34-22.1c-3.6-6.8-5.9-.7-8.1-4.9-2.9-5.5 12.6-15.6 13.2-15.9 2.6-1.4 3.1-.7 4.6 1.5.5.8 1.3 2.4 2.5 1.8 1.7-.9-.2-6.9 5.8-10.1 4.7-2.5 9.5-.6 12 4 2.5 4.7.4 10.4-4.1 12.9-4.5 2.4-7.9-.9-9.7 0-1.9 1 .9 5.5 1.5 6.7 1.1 2.1 2.9 4.9 4.6 7.3 2 2.8 6.3-1.8 8.5 2.3 2.3 4.4-3.6 8-11.3 12-3.2 1.7-12.6 6.8-15.1 2-1.5-2.9 1.7-4.6 1.1-7.4-.4-2-2.2-6.1-3.3-8l-2.2-4.2zm39.6-48c1.1-1 2.1-1.7 2.5-2.2.5-.6.7-1.2.9-2 .3-.7.5-1.4 1-1.9 2.3-2.8 10.2-1.1 12.7.9 1.7 1.3 1.7 3.7.5 5.3-2.8 3.5-9.2 1.5-11.4 4.2-.9 1.1-.9 2.9.3 3.9 3.9 3.2 15.5-9.7 25-2.1 5.7 4.6 5.2 13.4.1 19.8-1 1.2-2.6 2.8-4.1 4.2-1.4 1.4-2.7 2.6-3 2.9-.3.4-.6.8-.9 1.3-.2.4-.5.8-.8 1.3-1 1.2-1.7 1.7-3.3 1.8-2.9.1-7.7-1.1-10-3-1.6-1.3-2.4-2.9-1-4.6 2.2-2.7 10.2-.3 13-3.7 1-1.2 1.3-2.9 0-4-3.6-2.9-13.7 8.7-23.8.6-6.1-4.9-5.9-13.1-.8-19.4.8-1.2 2-2.4 3.1-3.3zM91.7 123.6c.6 3.6 1.5 7.4-1.9 9.9-3.7 2.7-6.1 1.4-9.7-.6l-33.2-18.4c-4.9-2.7-6.1-3-8.8-1.6-1.4.8-2.7.3-3.7-1-3.6-4.8 6.2-12.6 9.4-15C57 87 58.9 90.6 59.6 91.5c1.8 2.4-1.1 4.8.1 6.5 1 1.3 7.1 4.4 11.1 6.5 1.4.6 3.9 2.6 5.3 1.6 2.2-1.4.6-5.8.4-7.6-.4-2.1-1.7-9.9-2.8-11.4-1.7-2.3-4.4.8-6.3-1.8-2.9-3.9 5.1-9.8 7.6-11.6 7.9-5.9 10.3-5.5 12-3.3 1.3 1.7.6 3.5-.8 4.8-2.5 2.3-2.9 2.3-1.6 9l7.1 39.4zm11.8-48c-3.9 1.6-8.5 1.8-10-1.7-1.9-4.8 9.4-11.7 14.1-13.5 3.7-1.5 9.3-2.6 10.8 1 2.2 5.6-9.7 12.1-14.9 14.2zm28.6 18.6c3.5 8.6 7.6 3.3 9.2 7.1 2 5-9.7 9.7-13.8 11.3-15.8 6.4-17.6 3.8-18.3 2-1.1-2.6 2.7-4.3 2.8-7 .2-3-3.9-13.7-6-16-1.9-2.2-6.2.5-7.5-2.8-2.1-5.2 20.4-16.8 21.3-17.1 2.8-1.1 3.5.5 4.1 2.1l8.2 20.4zm34.7-8.2c.3 1.4.8 3.9 1.4 5.1 1.4 2.6 4.6.5 5.3 3.8 1.1 5.1-8.3 6.8-11.6 7.5-3.5.7-14.1 3.5-15.3-2-.6-2.7 2.9-2.4 3.2-5.4.3-3.4-1.8-13-2.6-16.7-.6-3-1.7-8.8-3.2-12.1-2.4-5.4-6.5-2.5-7.4-6.8-1.4-6.7 18.2-12.6 19.2-12.9 2.6-.6 3.6 1 4.1 3.3.4 1.8 1.2 10.4 3.6 21.4l3.3 14.8zm37.4-3.8c.1 1.4.2 4 .7 5.2 1 2.8 4.5 1.2 4.7 4.5.3 5.3-9.2 5.5-12.6 5.7-3.5.2-14.5 1.3-14.8-4.2-.2-2.7 3.3-1.9 4-4.9.8-3.3.2-13.1-.1-16.9-.2-3.1-.4-8.9-1.4-12.4-1.6-5.7-6-3.4-6.3-7.9-.4-6.8 19.8-9.8 20.9-9.9 2.7-.2 3.4 1.5 3.6 3.9.1 1.8-.3 10.5.4 21.7l.9 15.2zm55-1.2c-1.5 13.7 4 6.8 3.5 11-.5 4.5-7.1 8.6-12.8 8-6.2-.7-5.9-4.7-7.8-4.9-.9-.1-2.1.8-3.9 1.6-1.8.8-4.3 1.6-7.9 1.2-6.5-.7-12.6-4.9-11.7-12.6.6-5.5 6.7-11.8 20.4-10.3 2.4.3 3.5.5 3.8-2.3.3-2.6.8-8-2.8-8.4-4.7-.5-6.1 7.9-13 7.1-2.5-.3-4.2-2.3-3.9-4.8.7-6.6 14.4-9.5 21.8-8.7 4.5.5 16.5 3.5 15.2 15.2l-.9 7.9zM235 85.3c-.2 2 .6 4.3 2.9 4.6 3 .3 3.6-2.9 3.8-5.2.2-1.7.5-3.7-1.7-3.9-2.7-.3-4.7 2-5 4.5zm46 37.5c-13.7-4.7-17.1-11.7-15.5-16.5 1.5-4.3 5.6-3 6-4.1.3-1-3-4.4-1.8-7.7 1.8-5.3 8.4-4.8 8.7-5.8.3-.9-3.6-6.1-1.7-11.5 3.1-9 15.8-9.3 23.3-6.7 3.8 1.3 8.4 4.5 11 5.4 5.6 2 9.8-1 10.9-.6 1.7.6 1.7 3.1 1.2 4.5-1.4 4.2-6.6 5.7-6.9 6.5-.3.7-.3 1.6-.6 2.4-3.5 10-16.3 9.4-24.5 6.6-1.3-.4-2.4-1.1-3.8-1.6-1.3-.4-2.3.1-2.7 1.3-.8 2.3 2.3 3.9 4 4.5 2.3.8 11.4 2.5 14.3 3.5 7.7 2.7 9.5 8.2 7.9 12.6-2.1 6.7-11.6 13.5-29.8 7.2zm3-6.1c2.5.8 8.1 2.4 9.3-1 .5-1.6-.7-2.7-2.1-3.2-1.1-.4-4.2-.9-6.5-1.8-1.7-.6-5.5-2.6-6.3-2.9-.7-.2-1.1.4-1.3.9-1.5 3.9 4 7 6.9 8zM298.5 76c-2.9-1-5.1 1.3-6 3.9-1 2.8-2.4 9.2 1.4 10.6 3.3 1.2 5.5-1.4 6.5-4.3 1-3 2.3-8.7-1.9-10.2zm40.5 37.3c-.7-.5-1.6-1.4-2.4-.3-2.2 3.2.1 8.8 3.2 10.9 4.9 3.3 9.3 2.1 10.6 3 1.4.9 1.1 3.7.3 5-3.4 5-15 2.3-20.9-1.7-11.7-8-11.9-20.6-6.2-28.9 6.9-10 20.3-11.4 30-4.7 11 7.6 10 19.4 6.7 24.2-2.9 4.3-5.3 3.5-7.4 2.1l-13.9-9.6zm11.3-4.3c1.6-2.3 1.4-5.1-1-6.8-2.1-1.5-5.4-.5-6.8 1.6-1.6 2.3 1 3.3 2.6 4.5 1.8 1.2 3.6 3 5.2.7z" fill="#FFF"/></svg>