<svg xmlns="http://www.w3.org/2000/svg" viewBox="0 0 400 300"><path d="M48.4 212.6c2.4 2.1 5.8 1.8 7.9-.6 5-5.7-7.1-6.4-1.6-12.7 4.4-5 15 3.6 18.6 6.7 12.9 11.2 10.5 15.5 8.8 17.5-1.6 1.8-4.1 1.7-6 .6-2-1.3-2.4-1.1-4.4.3-11.4 7.7-25.3 4.1-35.1-4.3-14.6-12.6-18.6-33.8-5.4-49 12.6-14.5 33.9-14.2 48.6-1.4 6.1 5.2 7.8 10 9.5 11.5 1.2 1.1 3.9 1.6 5.2 2.7 4.3 3.7.7 12.9-2.3 16.4-2.9 3.4-7.6 5.3-11.3 2.1-6.8-5.9 1.5-15.5-7.9-23.6-6-5.2-14.1-3.6-20.5 3.7-12.3 14-8.5 26.3-4.1 30.1zm66.1 25.9c-1 3.5-2.4 9 2.3 10.4 6.3 1.9 7.9-6.6 9.1-10.8.9-2.9 2.1-6.6 2.5-9.5.6-4.6-4.1-4.4-3-8 1.5-5.1 19.3-.8 22.7.2 3.1.9 3.9 3.2 3 6.2-.8 2.8-1.8 5.4-2.7 8.2l-5.3 17.5c-1.6 5.2 4 4.2 2.7 8.4-1.8 5.9-17.7 3-22.5 1.5-6.7-2-.7-5.9-4.2-7-1-.3-2.7.6-5.2 1.3-2.5.7-5.7 1.2-9.5 0-16.6-5-11.3-17.6-7.3-30.7 4-13.4-3.8-9.3-2-15.1 1.7-5.6 23.7.7 24.4 1 2.4.7 2.4 1.9 1.7 4.1l-6.7 22.3zm67.3 15.3c-1 10.7 4.7 7.3 4.2 12.1-.6 6.2-12.1 5.1-16.2 4.7-15.6-1.5-15.9-5.1-15.7-7.3.3-3.3 4-3.1 5.4-5.8 1.5-3.1 2.9-16.2 2.2-19.6-.5-3.3-5.2-2.7-4.8-6.8.6-6.4 23.9-7 24.8-6.9 2.7.3 2.6 2.4 2.4 4.3l-2.3 25.3zM167 219.9c-3.8-.4-7.7-2.5-7.3-6.9.6-6 12.8-7.3 17.4-6.8 3.6.3 8.7 2 8.2 6.6-.7 7-13.2 7.6-18.3 7.1zm53.5 30.8c.3 6.1 2.9 7.4 5.3 7.3 2.8-.1 4.4-2.3 6-2.4 1.8-.1 3.2 2.4 3.3 4.1.3 6-9.9 11.7-19.1 12.1-4.6.2-16.4-1.3-17-15.8l-.8-18.7c-.1-1.6-.1-2.3-.6-2.5-.5-.3-1.5 0-3.6.1-2.4.1-3.5.2-4-.2-.7-.6-.5-1.5-.6-3.6-.1-1.3-.4-2.3.7-3l20.2-14.1c2-1.4 2-1.1 4.7-1.2 3.6-.2 3.8-.5 4 3.7.1 2.8.1 5.6.6 6.7.3.7.9.7 3.3.6l6.4-.3c3.9-.2 3.9.1 4.1 4.2.2 5.2-.4 5.6-3.9 5.7l-6.3.3c-3.2.1-3.4.2-3.2 3.5l.5 13.5zm64.4-13.4c3.6 15.6 7 5.9 8.1 10.6 1.2 5.1-4.5 12.2-10.9 13.7-7 1.6-8.2-2.8-10.5-2.3-1.1.2-1.9 1.7-3.7 3.2-1.7 1.6-4.1 3.4-8.2 4.3-7.4 1.7-15.6-.5-17.7-9.2-1.5-6.3 2.7-15.5 18.3-19.2 2.8-.6 4-.8 3.3-3.9-.7-2.9-2.2-9-6.3-8.1-5.3 1.2-3.6 10.9-11.5 12.8-2.8.7-5.4-.9-6.1-3.7-1.8-7.5 12.1-15.9 20.5-17.9 5.1-1.2 19.3-2.5 22.5 10.8l2.2 8.9zm-24.8 14c.5 2.3 2.4 4.5 4.9 3.9 3.4-.8 2.8-4.5 2.2-7.1-.5-2-.9-4.2-3.4-3.6-3 .7-4.4 4-3.7 6.8zm39.3-25.4c-4.1-7.9-6.8-.8-9.4-5.8-3.3-6.4 14.6-18 15.3-18.4 3.1-1.6 3.6-.8 5.3 1.7.6.9 1.5 2.8 2.9 2.1 1.9-1-.2-8 6.7-11.7 5.4-2.8 11.1-.7 13.9 4.7 2.8 5.4.5 12.1-4.9 14.9-5.2 2.7-9.1-1.1-11.2 0-2.3 1.2 1 6.4 1.7 7.8 1.3 2.4 3.3 5.7 5.3 8.5 2.3 3.3 7.3-2.1 9.9 2.7 2.7 5.1-4.2 9.2-13.1 13.9-3.7 1.9-14.6 7.9-17.5 2.3-1.8-3.4 1.9-5.3 1.3-8.6-.4-2.4-2.6-7.1-3.8-9.3l-2.4-4.8zm46.2-55.4c1.3-1.1 2.5-2 2.9-2.5.6-.7.8-1.4 1.1-2.3.3-.8.6-1.6 1.1-2.2 2.7-3.2 11.8-1.2 14.7 1.2 1.9 1.6 2 4.3.5 6.2-3.3 4-10.7 1.7-13.3 4.8-1 1.3-1 3.4.3 4.5 4.5 3.7 18.1-11.1 29-2.1 6.6 5.4 5.9 15.6-.1 22.9-1.2 1.4-3 3.3-4.8 4.8-1.7 1.6-3.1 3-3.5 3.4-.4.5-.7 1-1 1.5-.3.5-.6 1-1 1.5-1.2 1.4-1.9 1.9-3.9 2-3.4.1-8.9-1.4-11.5-3.6-1.8-1.5-2.8-3.4-1.1-5.4 2.5-3.1 11.8-.2 15.1-4.1 1.2-1.4 1.6-3.3 0-4.6-4.2-3.4-16 10-27.6.4-7-5.8-6.7-15.2-.8-22.4 1.1-1.5 2.5-2.9 3.9-4zM73.7 120.4c.7 4.1 1.7 8.6-2.2 11.5-4.2 3.2-7.1 1.6-11.3-.7l-38.5-21.3c-5.7-3.1-7-3.5-10.2-1.8-1.6.9-3.2.3-4.3-1.2-4.2-5.6 7.2-14.6 10.9-17.3 15.3-11.4 17.5-7.3 18.3-6.2 2.1 2.8-1.3 5.5.1 7.5 1.1 1.5 8.2 5.1 12.8 7.6 1.6.8 4.5 3 6.2 1.9 2.5-1.7.7-6.7.4-8.9-.4-2.4-2-11.5-3.3-13.2-2-2.6-5.1.9-7.3-2-3.4-4.5 5.9-11.3 8.8-13.5 9.2-6.9 12-6.3 13.9-3.8 1.5 2 .7 4-.9 5.5-2.9 2.7-3.3 2.7-1.9 10.4l8.5 45.5zm13.6-55.7c-4.5 1.8-9.9 2.1-11.6-2-2.2-5.6 11-13.5 16.4-15.7 4.3-1.7 10.8-3.1 12.5 1.2 2.6 6.6-11.2 14.1-17.3 16.5zm33.2 21.5c4 10 8.8 3.8 10.6 8.3 2.3 5.7-11.2 11.2-16 13.1-18.3 7.4-20.4 4.4-21.2 2.4-1.2-3 3.1-5 3.3-8.1.2-3.5-4.5-15.9-6.9-18.5-2.1-2.6-7.2.5-8.7-3.3-2.4-6 23.6-19.4 24.7-19.8 3.2-1.3 4.1.6 4.8 2.4l9.4 23.5zm40.2-9.5c.3 1.6.9 4.6 1.6 5.9 1.7 3 5.4.6 6.2 4.4 1.3 6-9.7 7.9-13.5 8.7-4 .9-16.4 4-17.7-2.3-.7-3.1 3.4-2.8 3.8-6.3.4-3.9-2-15-3-19.4-.8-3.5-2-10.2-3.7-14-2.8-6.3-7.5-2.8-8.6-7.9-1.7-7.7 21.1-14.6 22.3-14.9 3-.7 4.2 1.1 4.7 3.8.4 2 1.4 12.1 4.2 24.8l3.7 17.2zm43.5-4.4c.1 1.6.2 4.6.8 6.1 1.2 3.2 5.2 1.4 5.5 5.2.4 6.1-10.7 6.4-14.6 6.6-4.1.3-16.8 1.5-17.2-4.9-.2-3.2 3.8-2.3 4.7-5.7.9-3.8.2-15.2-.1-19.6-.2-3.5-.5-10.4-1.6-14.4-1.8-6.6-7-3.9-7.3-9.1-.5-7.9 23-11.4 24.3-11.4 3.1-.2 3.9 1.8 4.1 4.5.1 2.1-.4 12.2.4 25.2l1 17.5zm63.7-1.3c-1.7 15.9 4.6 7.8 4.1 12.7-.6 5.2-8.2 10-14.9 9.3-7.2-.8-6.8-5.4-9.1-5.7-1.1-.1-2.4.9-4.5 1.8-2.1 1-5 1.8-9.1 1.4-7.5-.8-14.6-5.6-13.6-14.6.7-6.4 7.7-13.7 23.7-12 2.8.3 4.1.6 4.4-2.6.3-3 .9-9.2-3.2-9.7-5.4-.6-7 9.1-15.1 8.2-2.9-.3-4.8-2.6-4.5-5.5.8-7.7 16.7-11 25.3-10.1 5.2.6 19.1 4.1 17.6 17.7l-1.1 9.1zm-28 5c-.3 2.4.7 5 3.4 5.3 3.4.4 4.1-3.3 4.4-6 .2-2 .6-4.2-2-4.5-3.1-.4-5.5 2.3-5.8 5.2zm53.3 43.5c-15.9-5.5-19.9-13.6-18-19.1 1.7-5 6.5-3.4 6.9-4.7.4-1.1-3.4-5.1-2.1-8.9 2.1-6.1 9.7-5.5 10.1-6.7.4-1-4.1-7-1.9-13.4 3.6-10.4 18.3-10.7 27-7.7 4.4 1.5 9.8 5.2 12.8 6.3 6.5 2.3 11.4-1.2 12.7-.7 2 .7 1.9 3.6 1.4 5.2-1.7 4.8-7.7 6.6-8 7.5-.3.9-.4 1.9-.7 2.8-4 11.6-18.9 10.9-28.4 7.6-1.5-.5-2.8-1.3-4.4-1.8-1.5-.5-2.7.1-3.1 1.5-.9 2.7 2.7 4.5 4.7 5.2 2.7.9 13.2 2.9 16.6 4.1 9 3.1 11 9.5 9.2 14.7-2.7 7.5-13.7 15.4-34.8 8.1zm3.5-7.1c2.8 1 9.4 2.8 10.8-1.2.6-1.8-.8-3.2-2.5-3.7-1.3-.4-4.8-1.1-7.6-2-2-.7-6.4-3-7.3-3.3-.8-.3-1.3.4-1.5 1-1.6 4.5 4.7 8 8.1 9.2zm16.9-47.1c-3.4-1.2-5.9 1.5-7 4.5-1.1 3.3-2.7 10.7 1.6 12.2 3.9 1.3 6.3-1.6 7.5-4.9 1.3-3.5 2.7-10.1-2.1-11.8zm46.9 43.3c-.8-.6-1.9-1.6-2.7-.3-2.6 3.8.1 10.3 3.6 12.7 5.6 3.9 10.7 2.4 12.3 3.5s1.3 4.3.3 5.8c-4 5.8-17.5 2.7-24.2-2-13.5-9.3-13.8-23.9-7.1-33.5 8-11.6 23.6-13.2 34.8-5.4 12.8 8.8 11.6 22.5 7.7 28.1-3.4 5-6.1 4.1-8.5 2.4l-16.2-11.3zm13.1-5c1.9-2.7 1.7-5.9-1.1-7.8-2.5-1.7-6.3-.6-7.9 1.8-1.9 2.7 1.1 3.9 3.1 5.2 1.9 1.4 4 3.5 5.9.8z" fill="none" stroke="#FFF" stroke-width="2" stroke-miterlimit="10"/></svg>