<svg xmlns="http://www.w3.org/2000/svg" viewBox="0 0 728.5 1031.809"><path class="logo-text" fill="#009245" d="M129.31 619.17c3.824 3.277 8.923 2.914 12.384-.912 7.65-8.924-11.11-10.016-2.55-19.852 6.74-7.83 23.494 5.646 28.958 10.383 20.216 17.48 16.39 24.22 13.66 27.316-2.37 2.732-6.376 2.732-9.472.91-3.096-2.004-3.824-1.82-6.92.365-17.666 12.02-39.34 6.374-54.638-6.74-22.583-19.85-28.776-52.632-8.377-76.49 19.67-22.585 52.816-22.038 75.764-2.187 9.47 8.195 12.02 15.48 14.933 18.03 2.003 1.64 6.192 2.55 8.013 4.19 6.74 5.827 1.093 20.216-3.643 25.68-4.553 5.282-11.838 8.378-17.666 3.278-10.563-9.104 2.368-24.04-12.384-36.79-9.29-8.012-22.037-5.644-31.872 5.83-18.94 22.038-12.93 40.98-6.192 46.99zm103.082 40.432c-1.64 5.463-3.825 14.023 3.643 16.21 9.834 2.913 12.202-10.2 14.206-16.757 1.277-4.553 3.28-10.38 3.827-14.934.91-7.102-6.375-6.736-4.735-12.564 2.37-8.014 30.052-1.275 35.333.363 4.917 1.456 6.01 4.917 4.735 9.65-1.275 4.37-2.914 8.56-4.188 12.75l-8.196 27.32c-2.368 8.194 6.192 6.556 4.19 13.112-2.733 9.288-27.684 4.554-35.15 2.368-10.382-3.096-1.094-9.29-6.558-10.928-1.457-.365-4.37.91-8.195 2.004-3.824 1.092-8.923 1.82-14.75 0-25.863-7.65-17.485-27.502-11.475-47.9 6.192-20.762-5.828-14.568-3.278-23.492 2.55-8.742 36.97 1.092 38.064 1.457 3.826 1.09 3.644 3.096 2.733 6.373l-10.2 34.97zm104.904 23.857c-1.64 16.754 7.284 11.473 6.556 18.94-.91 9.65-18.94 7.83-25.133 7.284-24.225-2.367-24.77-7.832-24.407-11.29.546-5.1 6.375-4.737 8.378-9.108 2.37-4.734 4.554-25.133 3.46-30.596-.73-5.1-8.195-4.188-7.466-10.563.91-10.016 37.154-10.928 38.61-10.744 4.19.363 4.008 3.64 3.825 6.555l-3.825 39.52zm-23.13-52.818c-6.01-.545-12.02-3.824-11.292-10.744.91-9.29 19.852-11.294 27.137-10.747 5.648.548 13.48 3.097 12.933 10.2-1.276 10.928-20.763 12.02-28.776 11.29zm83.413 47.9c.362 9.47 4.55 11.654 8.376 11.473 4.37-.182 6.738-3.643 9.288-3.643 2.914-.182 4.917 3.824 5.1 6.375.364 9.29-15.3 18.213-29.687 18.94-7.285.364-25.498-2.003-26.59-24.587l-1.275-29.138c-.182-2.55-.182-3.46-.91-4.008-.73-.363-2.186 0-5.464.182-3.644.184-5.465.365-6.193-.363-1.093-.91-.73-2.367-.91-5.646 0-2.004-.547-3.46 1.092-4.734l31.507-22.037c3.097-2.186 3.097-1.64 7.285-1.822 5.645-.182 6.01-.91 6.19 5.646.183 4.37.183 8.742.91 10.562.548 1.094 1.458 1.094 5.1.912l9.836-.365c6.01-.184 6.19.18 6.373 6.555.363 8.014-.547 8.742-6.193 8.924l-9.833.364c-4.918.182-5.282.363-5.1 5.463l1.092 20.945zm100.167-20.945c5.646 24.404 10.927 9.105 12.566 16.574 1.82 7.83-6.92 18.94-16.938 21.31-10.928 2.55-12.932-4.37-16.21-3.643-1.64.363-3.096 2.55-5.645 4.916-2.55 2.55-6.373 5.283-12.748 6.74-11.474 2.73-24.404-.73-27.5-14.39-2.368-9.833 4.188-24.222 28.593-29.868 4.37-1.092 6.192-1.092 5.1-6.19-1.093-4.554-3.46-14.024-9.834-12.567-8.376 2.003-5.644 17.118-17.847 19.85-4.37 1.093-8.56-1.456-9.47-5.827-2.732-11.655 18.758-24.77 31.87-27.864 7.832-1.822 30.233-3.824 34.97 16.938l3.096 14.022zm-38.43 21.856c.91 3.643 3.644 6.92 7.65 6.01 5.28-1.275 4.37-6.92 3.278-11.11-.73-3.095-1.457-6.556-5.282-5.645-4.552 1.09-6.737 6.373-5.645 10.744zm61.196-39.704c-6.375-12.386-10.563-1.276-14.57-8.925-5.28-10.018 22.766-28.05 23.858-28.777 4.736-2.55 5.647-1.274 8.38 2.73.91 1.458 2.366 4.372 4.37 3.28 3.096-1.64-.364-12.566 10.562-18.213 8.378-4.37 17.302-1.094 21.673 7.285 4.37 8.377.73 18.758-7.467 23.13s-14.207-1.64-17.485 0c-3.46 1.82 1.457 10.017 2.732 12.202 2.003 3.824 5.1 8.924 8.195 13.295 3.643 5.1 11.474-3.28 15.3 4.188 4.187 7.83-6.558 14.387-20.4 21.672-5.827 3.096-22.765 12.203-27.317 3.643-2.732-5.28 3.096-8.377 2.003-13.477-.73-3.643-4.007-11.11-5.828-14.57l-4.006-7.466zm71.757-86.33c2.004-1.64 3.825-3.095 4.372-3.823.91-1.092 1.274-2.186 1.64-3.643.546-1.275.91-2.55 1.82-3.46 4.19-5.1 18.395-1.82 22.948 1.82 2.914 2.368 3.096 6.74.73 9.653-5.1 6.19-16.757 2.732-20.58 7.467-1.64 2.004-1.64 5.28.545 6.922 7.104 5.826 28.048-17.303 45.167-3.46 10.382 8.376 9.288 24.222 0 35.694-1.82 2.187-4.735 5.1-7.467 7.47-2.55 2.55-4.918 4.553-5.464 5.28-.545.73-1.09 1.458-1.637 2.368-.365.73-.91 1.457-1.457 2.186-1.82 2.186-3.097 3.096-6.01 3.096-5.282.182-13.842-2.186-18.03-5.645-2.915-2.37-4.372-5.283-1.822-8.38 4.007-4.917 18.395-.362 23.494-6.556 1.82-2.188 2.368-5.1 0-7.104-6.557-5.283-24.95 15.662-42.98.73-10.93-8.927-10.564-23.68-1.275-34.97 1.82-1.82 4.006-4.006 6.01-5.645z"/><path fill="#009245" d="M168.648 475.474c1.093 6.374 2.73 13.295-3.46 18.03-6.557 4.917-11.11 2.367-17.666-1.093l-59.92-33.144c-8.923-4.918-10.926-5.464-15.844-2.914-2.55 1.275-4.917.547-6.74-1.82-6.556-8.742 11.293-22.766 16.94-26.955 23.857-17.848 27.136-11.474 28.41-9.652 3.28 4.37-2.002 8.56.183 11.656 1.823 2.367 12.75 8.013 20.036 11.838 2.55 1.093 7.103 4.735 9.653 2.914 4.006-2.55 1.092-10.38.73-13.84-.73-3.825-3.098-17.85-5.1-20.58-3.098-4.008-8.016 1.456-11.476-3.097-5.282-7.104 9.106-17.667 13.66-20.945 14.387-10.745 18.758-9.834 21.672-5.828 2.368 3.096 1.093 6.192-1.275 8.56-4.552 4.19-5.1 4.19-2.913 16.21l13.112 70.664zm21.31-86.692c-6.922 2.732-15.482 3.278-18.032-3.096-3.46-8.742 16.938-21.126 25.498-24.405 6.557-2.73 16.756-4.733 19.488 1.823 4.005 10.2-17.667 21.855-26.955 25.68zm51.54 33.51c6.192 15.48 13.842 6.01 16.574 12.932 3.643 8.924-17.484 17.484-24.95 20.398-28.595 11.474-31.69 6.738-32.966 3.643-1.82-4.735 4.735-7.65 5.1-12.567.364-5.464-7.103-24.77-10.745-28.775-3.276-4.007-11.29.91-13.66-5.1-3.823-9.288 36.79-30.233 38.43-30.96 4.917-2.004 6.375.91 7.467 3.642l14.752 36.788zm62.65-14.75c.547 2.55 1.458 7.102 2.55 9.104 2.55 4.735 8.378.91 9.653 6.74 2.005 9.287-15.115 12.2-20.943 13.476-6.192 1.275-25.498 6.192-27.683-3.642-1.093-4.918 5.282-4.37 5.828-9.835.547-6.01-3.095-23.494-4.734-30.233-1.093-5.464-3.096-15.845-5.828-21.855-4.37-9.835-11.656-4.37-13.477-12.385-2.55-12.02 32.784-22.766 34.787-23.13 4.735-1.093 6.557 1.82 7.467 6.01.73 3.278 2.186 18.76 6.557 38.61l5.83 27.14zm67.75-6.922c.183 2.55.365 7.285 1.275 9.47 1.82 4.918 8.196 2.187 8.56 8.196.547 9.47-16.755 9.835-22.765 10.38-6.375.365-26.227 2.37-26.772-7.648-.364-4.917 5.828-3.46 7.285-8.924 1.458-6.01.366-23.676-.18-30.597-.365-5.463-.73-16.21-2.55-22.4-2.73-10.382-10.93-6.193-11.475-14.207-.73-12.385 35.88-17.666 37.882-17.848 4.735-.364 6.192 2.732 6.374 6.92.184 3.278-.545 18.94.73 39.157l1.64 27.5zm99.26-2.004c-2.732 24.77 7.284 12.203 6.373 19.852-.91 8.014-12.746 15.663-23.127 14.39-11.11-1.276-10.563-8.38-14.206-8.743-1.64-.183-3.643 1.457-7.103 2.73-3.278 1.458-7.65 2.915-14.206 2.187-11.656-1.274-22.766-8.742-21.127-22.766 1.094-10.017 12.02-21.31 36.79-18.577 4.37.544 6.375.91 6.92-4.19.548-4.736 1.458-14.39-5.1-15.117-8.376-.91-10.926 14.206-23.493 12.93-4.553-.545-7.467-4.187-7.103-8.56 1.275-12.02 26.044-17.12 39.34-15.662 8.013.91 29.686 6.376 27.318 27.5l-1.273 14.025zm-43.71 7.65c-.365 3.643 1.092 7.83 5.28 8.195 5.282.55 6.375-5.097 6.92-9.47.365-3.095.912-6.555-3.095-7.102-4.916-.18-8.56 4.008-9.106 8.38zm83.23 67.75c-24.77-8.56-30.96-21.308-28.047-29.868 2.734-7.83 10.2-5.28 10.748-7.285.546-1.82-5.282-8.013-3.278-13.84 3.277-9.472 15.115-8.56 15.844-10.383.546-1.64-6.374-10.927-2.914-20.944 5.646-16.21 28.41-16.755 42.07-12.02 6.92 2.367 15.3 8.195 19.853 9.834 10.198 3.46 17.666-1.82 19.67-1.093 3.096 1.093 3.096 5.464 2.185 8.014-2.55 7.47-12.02 10.2-12.566 11.84-.547 1.274-.547 2.914-1.093 4.37-6.194 18.03-29.506 16.94-44.26 11.84-2.366-.73-4.37-2.005-6.92-2.733-2.367-.73-4.19.183-4.917 2.368-1.457 4.188 4.19 6.92 7.285 8.014 4.187 1.456 20.58 4.552 25.86 6.373 14.024 4.917 17.12 14.752 14.39 22.766-4.01 12.02-21.13 24.22-53.91 12.75zm5.282-10.927c4.37 1.455 14.752 4.37 16.938-1.823.91-2.73-1.274-4.917-3.824-5.828-2.004-.73-7.468-1.64-11.838-3.28-3.097-1.092-10.018-4.734-11.475-5.1-1.272-.363-2 .73-2.365 1.64-2.37 6.92 7.285 12.567 12.566 14.388zm26.227-73.4c-5.282-1.82-9.29 2.37-10.928 7.104-1.823 5.1-4.19 16.755 2.55 19.123 6.01 2.004 9.832-2.367 11.653-7.648 2.004-5.648 4.37-16.03-3.277-18.58zm73.213 67.39c-1.275-.912-2.914-2.55-4.37-.548-4.008 5.828.182 16.027 5.645 19.852 8.742 6.01 16.756 3.824 19.124 5.464 2.365 1.64 2 6.738.544 8.924-6.192 8.925-27.137 4.19-37.7-3.096-21.126-14.57-21.49-37.153-11.11-52.27 12.386-18.03 36.79-20.58 54.274-8.56 19.85 13.658 18.03 34.967 12.02 43.71-5.282 7.648-9.47 6.374-13.296 3.824l-25.134-17.3zm20.4-7.833c2.913-4.188 2.548-9.288-1.822-12.202-3.825-2.73-9.835-.91-12.385 2.914-2.914 4.186 1.64 6.01 4.735 8.012 3.278 2.185 6.557 5.464 9.47 1.274z"/><ellipse class="logo-ellipse" fill="none" stroke="#009245" stroke-width="4" stroke-miterlimit="10" cx="363.25" cy="515.187" rx="354.779" ry="223.65"/></svg>